<svg width="1467" height="123" viewBox="0 0 1467 123" fill="none" xmlns="http://www.w3.org/2000/svg">
<path d="M89.1253 19.9688L81.7894 48H74.5472L85.2112 13.875H89.7347L89.1253 19.9688ZM94.9144 48L87.5316 19.9688L86.8519 13.875H91.4456L102.203 48H94.9144ZM95.1722 35.2734V40.9688H79.7737V35.2734H95.1722ZM131.829 36.6328H138.65C138.556 39.1953 138.04 41.3594 137.103 43.125C136.165 44.875 134.829 46.2031 133.095 47.1094C131.376 48.0156 129.298 48.4688 126.861 48.4688C124.97 48.4688 123.29 48.1562 121.822 47.5312C120.353 46.8906 119.103 45.9531 118.072 44.7188C117.04 43.4844 116.259 41.9609 115.728 40.1484C115.212 38.3203 114.954 36.2188 114.954 33.8438V28.0547C114.954 25.6797 115.228 23.5781 115.775 21.75C116.337 19.9219 117.134 18.3906 118.165 17.1562C119.212 15.9063 120.47 14.9688 121.939 14.3438C123.423 13.7031 125.095 13.3828 126.954 13.3828C129.439 13.3828 131.517 13.8516 133.189 14.7891C134.861 15.7266 136.15 17.0938 137.056 18.8906C137.978 20.6719 138.532 22.8516 138.72 25.4297H131.876C131.829 23.8047 131.642 22.5312 131.314 21.6094C131.001 20.6719 130.501 20.0156 129.814 19.6406C129.126 19.25 128.173 19.0547 126.954 19.0547C126.048 19.0547 125.267 19.2188 124.611 19.5469C123.954 19.8594 123.415 20.3672 122.993 21.0703C122.572 21.7734 122.259 22.6953 122.056 23.8359C121.868 24.9766 121.775 26.3672 121.775 28.0078V33.8438C121.775 35.4531 121.861 36.8281 122.032 37.9688C122.204 39.0938 122.478 40.0156 122.853 40.7344C123.228 41.4531 123.736 41.9766 124.376 42.3047C125.032 42.6328 125.861 42.7969 126.861 42.7969C128.017 42.7969 128.947 42.625 129.65 42.2812C130.368 41.9375 130.9 41.3203 131.243 40.4297C131.587 39.5391 131.782 38.2734 131.829 36.6328ZM161.373 27.7031V33.375H147.381V27.7031H161.373ZM149.326 13.875V48H142.459V13.875H149.326ZM166.342 13.875V48H159.545V13.875H166.342ZM186.791 13.875H193.635V37.3125C193.635 39.9375 193.151 42.0781 192.182 43.7344C191.229 45.375 189.908 46.5781 188.221 47.3438C186.533 48.0938 184.604 48.4688 182.432 48.4688C180.244 48.4688 178.299 48.0938 176.596 47.3438C174.893 46.5781 173.565 45.375 172.612 43.7344C171.674 42.0781 171.205 39.9375 171.205 37.3125V13.875H178.049V37.3125C178.049 38.7969 178.213 39.9375 178.541 40.7344C178.885 41.5312 179.377 42.0781 180.018 42.375C180.674 42.6562 181.479 42.7969 182.432 42.7969C183.401 42.7969 184.197 42.6562 184.822 42.375C185.463 42.0781 185.947 41.5312 186.276 40.7344C186.619 39.9375 186.791 38.7969 186.791 37.3125V13.875ZM198.428 13.875H209.374C211.655 13.875 213.6 14.2656 215.21 15.0469C216.819 15.8281 218.053 16.9844 218.913 18.5156C219.772 20.0469 220.202 21.9375 220.202 24.1875C220.202 26.0312 219.952 27.6094 219.452 28.9219C218.952 30.2188 218.241 31.3047 217.319 32.1797C216.397 33.0391 215.296 33.7266 214.014 34.2422L211.928 35.4844H203.046L203.022 29.7891H209.186C210.124 29.7891 210.897 29.5859 211.507 29.1797C212.132 28.7578 212.592 28.1719 212.889 27.4219C213.202 26.6562 213.358 25.7656 213.358 24.75C213.358 23.6719 213.217 22.75 212.936 21.9844C212.671 21.2031 212.241 20.6094 211.647 20.2031C211.069 19.7812 210.311 19.5703 209.374 19.5703H205.296V48H198.428V13.875ZM213.921 48L207.663 32.7891L214.858 32.7656L221.257 47.6719V48H213.921ZM240.769 36.6328H247.589C247.495 39.1953 246.98 41.3594 246.042 43.125C245.105 44.875 243.769 46.2031 242.034 47.1094C240.316 48.0156 238.237 48.4688 235.8 48.4688C233.909 48.4688 232.23 48.1562 230.761 47.5312C229.292 46.8906 228.042 45.9531 227.011 44.7188C225.98 43.4844 225.198 41.9609 224.667 40.1484C224.152 38.3203 223.894 36.2188 223.894 33.8438V28.0547C223.894 25.6797 224.167 23.5781 224.714 21.75C225.277 19.9219 226.073 18.3906 227.105 17.1562C228.152 15.9063 229.409 14.9688 230.878 14.3438C232.362 13.7031 234.034 13.3828 235.894 13.3828C238.378 13.3828 240.456 13.8516 242.128 14.7891C243.8 15.7266 245.089 17.0938 245.995 18.8906C246.917 20.6719 247.472 22.8516 247.659 25.4297H240.816C240.769 23.8047 240.581 22.5312 240.253 21.6094C239.941 20.6719 239.441 20.0156 238.753 19.6406C238.066 19.25 237.112 19.0547 235.894 19.0547C234.987 19.0547 234.206 19.2188 233.55 19.5469C232.894 19.8594 232.355 20.3672 231.933 21.0703C231.511 21.7734 231.198 22.6953 230.995 23.8359C230.808 24.9766 230.714 26.3672 230.714 28.0078V33.8438C230.714 35.4531 230.8 36.8281 230.972 37.9688C231.144 39.0938 231.417 40.0156 231.792 40.7344C232.167 41.4531 232.675 41.9766 233.316 42.3047C233.972 42.6328 234.8 42.7969 235.8 42.7969C236.956 42.7969 237.886 42.625 238.589 42.2812C239.308 41.9375 239.839 41.3203 240.183 40.4297C240.527 39.5391 240.722 38.2734 240.769 36.6328ZM270.312 27.7031V33.375H256.32V27.7031H270.312ZM258.265 13.875V48H251.398V13.875H258.265ZM275.281 13.875V48H268.484V13.875H275.281ZM303.172 13.875V48H296.352V13.875H303.172ZM311.657 13.875V19.5703H288.032V13.875H311.657ZM334.075 27.7031V33.375H320.083V27.7031H334.075ZM322.028 13.875V48H315.161V13.875H322.028ZM339.044 13.875V48H332.247V13.875H339.044ZM356.939 19.9688L349.603 48H342.361L353.025 13.875H357.548L356.939 19.9688ZM362.728 48L355.345 19.9688L354.666 13.875H359.259L370.017 48H362.728ZM362.986 35.2734V40.9688H347.587V35.2734H362.986ZM383.576 13.875V48H376.756V13.875H383.576ZM392.061 13.875V19.5703H368.436V13.875H392.061ZM399.245 12V15.4453L398.542 24.9141H394.276L394.299 15.7734V12H399.245ZM417.304 39.0234C417.304 38.4141 417.249 37.8594 417.14 37.3594C417.03 36.8594 416.796 36.3984 416.437 35.9766C416.093 35.5547 415.585 35.1328 414.913 34.7109C414.257 34.2891 413.397 33.8516 412.335 33.3984C411.069 32.8672 409.843 32.3047 408.655 31.7109C407.468 31.1016 406.397 30.3984 405.444 29.6016C404.491 28.8047 403.733 27.8672 403.171 26.7891C402.624 25.6953 402.351 24.4141 402.351 22.9453C402.351 21.5078 402.608 20.2031 403.124 19.0312C403.655 17.8594 404.405 16.8594 405.374 16.0312C406.343 15.1875 407.476 14.5391 408.772 14.0859C410.085 13.6328 411.546 13.4062 413.155 13.4062C415.343 13.4062 417.233 13.8594 418.827 14.7656C420.437 15.6719 421.679 16.9141 422.554 18.4922C423.444 20.0703 423.89 21.8828 423.89 23.9297H417.046C417.046 22.9609 416.905 22.1094 416.624 21.375C416.358 20.625 415.929 20.0391 415.335 19.6172C414.741 19.1953 413.976 18.9844 413.038 18.9844C412.163 18.9844 411.437 19.1641 410.858 19.5234C410.296 19.8672 409.874 20.3438 409.593 20.9531C409.327 21.5469 409.194 22.2188 409.194 22.9688C409.194 23.5312 409.327 24.0391 409.593 24.4922C409.874 24.9297 410.257 25.3281 410.741 25.6875C411.226 26.0312 411.796 26.3672 412.452 26.6953C413.124 27.0234 413.858 27.3438 414.655 27.6562C416.202 28.2656 417.569 28.9375 418.757 29.6719C419.944 30.3906 420.937 31.2031 421.733 32.1094C422.53 33 423.132 34.0078 423.538 35.1328C423.944 36.2578 424.147 37.5391 424.147 38.9766C424.147 40.3984 423.897 41.6953 423.397 42.8672C422.913 44.0234 422.202 45.0234 421.265 45.8672C420.327 46.6953 419.194 47.3359 417.866 47.7891C416.554 48.2422 415.085 48.4688 413.46 48.4688C411.882 48.4688 410.39 48.25 408.983 47.8125C407.577 47.3594 406.335 46.6797 405.257 45.7734C404.194 44.8516 403.358 43.6875 402.749 42.2812C402.14 40.8594 401.835 39.1797 401.835 37.2422H408.702C408.702 38.2734 408.804 39.1562 409.007 39.8906C409.21 40.6094 409.522 41.1875 409.944 41.625C410.366 42.0469 410.882 42.3672 411.491 42.5859C412.116 42.7891 412.827 42.8906 413.624 42.8906C414.53 42.8906 415.249 42.7188 415.78 42.375C416.327 42.0312 416.718 41.5703 416.952 40.9922C417.187 40.4141 417.304 39.7578 417.304 39.0234ZM462.07 30.0703V44.1328C461.586 44.6484 460.875 45.25 459.938 45.9375C459.016 46.6094 457.805 47.2031 456.305 47.7188C454.82 48.2188 453.008 48.4688 450.867 48.4688C448.977 48.4688 447.258 48.1719 445.711 47.5781C444.18 46.9844 442.859 46.0859 441.75 44.8828C440.656 43.6641 439.82 42.1484 439.242 40.3359C438.664 38.5078 438.375 36.3438 438.375 33.8438V28.0312C438.375 25.5625 438.648 23.4141 439.195 21.5859C439.758 19.7422 440.57 18.2109 441.633 16.9922C442.695 15.7734 443.961 14.8672 445.43 14.2734C446.914 13.6797 448.586 13.3828 450.445 13.3828C453.008 13.3828 455.109 13.8125 456.75 14.6719C458.406 15.5313 459.656 16.8047 460.5 18.4922C461.359 20.1797 461.875 22.25 462.047 24.7031H455.414C455.305 23.2656 455.062 22.1406 454.688 21.3281C454.328 20.5156 453.82 19.9375 453.164 19.5938C452.508 19.2344 451.656 19.0547 450.609 19.0547C449.703 19.0547 448.914 19.2188 448.242 19.5469C447.57 19.8594 447.008 20.375 446.555 21.0938C446.102 21.8125 445.766 22.7344 445.547 23.8594C445.328 24.9844 445.219 26.3594 445.219 27.9844V33.8438C445.219 35.4531 445.344 36.8281 445.594 37.9688C445.844 39.1094 446.211 40.0391 446.695 40.7578C447.195 41.4766 447.82 42 448.57 42.3281C449.336 42.6406 450.234 42.7969 451.266 42.7969C452.094 42.7969 452.758 42.7109 453.258 42.5391C453.758 42.3672 454.156 42.1875 454.453 42C454.766 41.7969 455.023 41.6406 455.227 41.5312V35.25H450.328V30.0703H462.07ZM473.661 13.875V48H466.84V13.875H473.661ZM489.657 40.7109L496.126 13.875H503.532L493.642 48H488.649L489.657 40.7109ZM484.126 13.875L490.571 40.7109L491.626 48H486.61L476.79 13.875H484.126ZM525.88 42.3281V48H511.044V42.3281H525.88ZM513.177 13.875V48H506.31V13.875H513.177ZM523.888 27.7031V33.2109H511.044V27.7031H523.888ZM525.833 13.875V19.5703H511.044V13.875H525.833ZM543.846 39.0234C543.846 38.4141 543.791 37.8594 543.682 37.3594C543.572 36.8594 543.338 36.3984 542.978 35.9766C542.635 35.5547 542.127 35.1328 541.455 34.7109C540.799 34.2891 539.939 33.8516 538.877 33.3984C537.611 32.8672 536.385 32.3047 535.197 31.7109C534.01 31.1016 532.939 30.3984 531.986 29.6016C531.033 28.8047 530.275 27.8672 529.713 26.7891C529.166 25.6953 528.892 24.4141 528.892 22.9453C528.892 21.5078 529.15 20.2031 529.666 19.0312C530.197 17.8594 530.947 16.8594 531.916 16.0312C532.885 15.1875 534.017 14.5391 535.314 14.0859C536.627 13.6328 538.088 13.4062 539.697 13.4062C541.885 13.4062 543.775 13.8594 545.369 14.7656C546.978 15.6719 548.221 16.9141 549.096 18.4922C549.986 20.0703 550.432 21.8828 550.432 23.9297H543.588C543.588 22.9609 543.447 22.1094 543.166 21.375C542.9 20.625 542.471 20.0391 541.877 19.6172C541.283 19.1953 540.517 18.9844 539.58 18.9844C538.705 18.9844 537.978 19.1641 537.4 19.5234C536.838 19.8672 536.416 20.3438 536.135 20.9531C535.869 21.5469 535.736 22.2188 535.736 22.9688C535.736 23.5312 535.869 24.0391 536.135 24.4922C536.416 24.9297 536.799 25.3281 537.283 25.6875C537.767 26.0312 538.338 26.3672 538.994 26.6953C539.666 27.0234 540.4 27.3438 541.197 27.6562C542.744 28.2656 544.111 28.9375 545.299 29.6719C546.486 30.3906 547.478 31.2031 548.275 32.1094C549.072 33 549.674 34.0078 550.08 35.1328C550.486 36.2578 550.689 37.5391 550.689 38.9766C550.689 40.3984 550.439 41.6953 549.939 42.8672C549.455 44.0234 548.744 45.0234 547.807 45.8672C546.869 46.6953 545.736 47.3359 544.408 47.7891C543.096 48.2422 541.627 48.4688 540.002 48.4688C538.424 48.4688 536.932 48.25 535.525 47.8125C534.119 47.3594 532.877 46.6797 531.799 45.7734C530.736 44.8516 529.9 43.6875 529.291 42.2812C528.682 40.8594 528.377 39.1797 528.377 37.2422H535.244C535.244 38.2734 535.346 39.1562 535.549 39.8906C535.752 40.6094 536.064 41.1875 536.486 41.625C536.908 42.0469 537.424 42.3672 538.033 42.5859C538.658 42.7891 539.369 42.8906 540.166 42.8906C541.072 42.8906 541.791 42.7188 542.322 42.375C542.869 42.0312 543.26 41.5703 543.494 40.9922C543.728 40.4141 543.846 39.7578 543.846 39.0234ZM570.495 13.875L575.698 29.25L580.854 13.875H588.331L579.143 35.6016V48H572.229V35.6016L563.042 13.875H570.495ZM614.288 28.2891V33.9844C614.288 36.3906 613.992 38.5 613.398 40.3125C612.82 42.1094 611.992 43.6172 610.913 44.8359C609.851 46.0391 608.562 46.9453 607.046 47.5547C605.546 48.1641 603.882 48.4688 602.054 48.4688C600.226 48.4688 598.554 48.1641 597.038 47.5547C595.538 46.9453 594.242 46.0391 593.148 44.8359C592.07 43.6172 591.234 42.1094 590.64 40.3125C590.046 38.5 589.749 36.3906 589.749 33.9844V28.2891C589.749 25.8203 590.038 23.6641 590.617 21.8203C591.195 19.9609 592.031 18.4141 593.124 17.1797C594.218 15.9297 595.515 14.9922 597.015 14.3672C598.515 13.7266 600.179 13.4062 602.007 13.4062C603.835 13.4062 605.499 13.7266 606.999 14.3672C608.499 14.9922 609.796 15.9297 610.89 17.1797C611.984 18.4141 612.82 19.9609 613.398 21.8203C613.992 23.6641 614.288 25.8203 614.288 28.2891ZM607.468 33.9844V28.2422C607.468 26.6172 607.351 25.2344 607.117 24.0938C606.882 22.9375 606.531 21.9922 606.062 21.2578C605.593 20.5234 605.023 19.9844 604.351 19.6406C603.679 19.2969 602.898 19.125 602.007 19.125C601.117 19.125 600.328 19.2969 599.64 19.6406C598.968 19.9844 598.398 20.5234 597.929 21.2578C597.476 21.9922 597.132 22.9375 596.898 24.0938C596.679 25.2344 596.57 26.6172 596.57 28.2422V33.9844C596.57 35.5469 596.687 36.8828 596.921 37.9922C597.156 39.1016 597.507 40.0078 597.976 40.7109C598.445 41.4141 599.015 41.9375 599.687 42.2812C600.374 42.6094 601.163 42.7734 602.054 42.7734C602.929 42.7734 603.703 42.6094 604.374 42.2812C605.062 41.9375 605.632 41.4141 606.085 40.7109C606.538 40.0078 606.882 39.1016 607.117 37.9922C607.351 36.8828 607.468 35.5469 607.468 33.9844ZM634.129 13.875H640.972V37.3125C640.972 39.9375 640.488 42.0781 639.519 43.7344C638.566 45.375 637.246 46.5781 635.558 47.3438C633.871 48.0938 631.941 48.4688 629.769 48.4688C627.582 48.4688 625.637 48.0938 623.933 47.3438C622.23 46.5781 620.902 45.375 619.949 43.7344C619.012 42.0781 618.543 39.9375 618.543 37.3125V13.875H625.387V37.3125C625.387 38.7969 625.551 39.9375 625.879 40.7344C626.222 41.5312 626.715 42.0781 627.355 42.375C628.012 42.6562 628.816 42.7969 629.769 42.7969C630.738 42.7969 631.535 42.6562 632.16 42.375C632.801 42.0781 633.285 41.5312 633.613 40.7344C633.957 39.9375 634.129 38.7969 634.129 37.3125V13.875ZM668.513 13.875V48H661.692V13.875H668.513ZM676.997 13.875V19.5703H653.372V13.875H676.997ZM699.415 27.7031V33.375H685.423V27.7031H699.415ZM687.368 13.875V48H680.501V13.875H687.368ZM704.384 13.875V48H697.587V13.875H704.384ZM729.076 42.3281V48H714.24V42.3281H729.076ZM716.373 13.875V48H709.506V13.875H716.373ZM727.084 27.7031V33.2109H714.24V27.7031H727.084ZM729.029 13.875V19.5703H714.24V13.875H729.029ZM767.163 28.2891V33.9844C767.163 36.3906 766.866 38.5 766.272 40.3125C765.694 42.1094 764.866 43.6172 763.788 44.8359C762.725 46.0391 761.436 46.9453 759.921 47.5547C758.421 48.1641 756.757 48.4688 754.928 48.4688C753.1 48.4688 751.428 48.1641 749.913 47.5547C748.413 46.9453 747.116 46.0391 746.022 44.8359C744.944 43.6172 744.108 42.1094 743.514 40.3125C742.921 38.5 742.624 36.3906 742.624 33.9844V28.2891C742.624 25.8203 742.913 23.6641 743.491 21.8203C744.069 19.9609 744.905 18.4141 745.999 17.1797C747.092 15.9297 748.389 14.9922 749.889 14.3672C751.389 13.7266 753.053 13.4062 754.882 13.4062C756.71 13.4062 758.374 13.7266 759.874 14.3672C761.374 14.9922 762.671 15.9297 763.764 17.1797C764.858 18.4141 765.694 19.9609 766.272 21.8203C766.866 23.6641 767.163 25.8203 767.163 28.2891ZM760.342 33.9844V28.2422C760.342 26.6172 760.225 25.2344 759.991 24.0938C759.757 22.9375 759.405 21.9922 758.936 21.2578C758.467 20.5234 757.897 19.9844 757.225 19.6406C756.553 19.2969 755.772 19.125 754.882 19.125C753.991 19.125 753.202 19.2969 752.514 19.6406C751.842 19.9844 751.272 20.5234 750.803 21.2578C750.35 21.9922 750.007 22.9375 749.772 24.0938C749.553 25.2344 749.444 26.6172 749.444 28.2422V33.9844C749.444 35.5469 749.561 36.8828 749.796 37.9922C750.03 39.1016 750.382 40.0078 750.85 40.7109C751.319 41.4141 751.889 41.9375 752.561 42.2812C753.249 42.6094 754.038 42.7734 754.928 42.7734C755.803 42.7734 756.577 42.6094 757.249 42.2812C757.936 41.9375 758.507 41.4141 758.96 40.7109C759.413 40.0078 759.757 39.1016 759.991 37.9922C760.225 36.8828 760.342 35.5469 760.342 33.9844ZM783.3 35.9766H776.316V30.2812H783.3C784.269 30.2812 785.058 30.0625 785.667 29.625C786.292 29.1875 786.745 28.5859 787.027 27.8203C787.308 27.0391 787.448 26.1641 787.448 25.1953C787.448 24.2109 787.3 23.2969 787.003 22.4531C786.722 21.5938 786.277 20.8984 785.667 20.3672C785.073 19.8359 784.284 19.5703 783.3 19.5703H778.519V48H771.675V13.875H783.3C785.597 13.875 787.573 14.3594 789.23 15.3281C790.886 16.2969 792.152 17.6328 793.027 19.3359C793.917 21.0234 794.362 22.9609 794.362 25.1484C794.362 27.3516 793.917 29.2656 793.027 30.8906C792.152 32.5 790.886 33.75 789.23 34.6406C787.573 35.5312 785.597 35.9766 783.3 35.9766ZM810.101 35.9766H803.117V30.2812H810.101C811.07 30.2812 811.859 30.0625 812.468 29.625C813.093 29.1875 813.547 28.5859 813.828 27.8203C814.109 27.0391 814.25 26.1641 814.25 25.1953C814.25 24.2109 814.101 23.2969 813.804 22.4531C813.523 21.5938 813.078 20.8984 812.468 20.3672C811.875 19.8359 811.086 19.5703 810.101 19.5703H805.32V48H798.476V13.875H810.101C812.398 13.875 814.375 14.3594 816.031 15.3281C817.687 16.2969 818.953 17.6328 819.828 19.3359C820.718 21.0234 821.164 22.9609 821.164 25.1484C821.164 27.3516 820.718 29.2656 819.828 30.8906C818.953 32.5 817.687 33.75 816.031 34.6406C814.375 35.5312 812.398 35.9766 810.101 35.9766ZM849.254 28.2891V33.9844C849.254 36.3906 848.957 38.5 848.363 40.3125C847.785 42.1094 846.957 43.6172 845.879 44.8359C844.817 46.0391 843.527 46.9453 842.012 47.5547C840.512 48.1641 838.848 48.4688 837.02 48.4688C835.192 48.4688 833.52 48.1641 832.004 47.5547C830.504 46.9453 829.207 46.0391 828.113 44.8359C827.035 43.6172 826.199 42.1094 825.606 40.3125C825.012 38.5 824.715 36.3906 824.715 33.9844V28.2891C824.715 25.8203 825.004 23.6641 825.582 21.8203C826.16 19.9609 826.996 18.4141 828.09 17.1797C829.184 15.9297 830.481 14.9922 831.981 14.3672C833.481 13.7266 835.145 13.4062 836.973 13.4062C838.801 13.4062 840.465 13.7266 841.965 14.3672C843.465 14.9922 844.762 15.9297 845.856 17.1797C846.949 18.4141 847.785 19.9609 848.363 21.8203C848.957 23.6641 849.254 25.8203 849.254 28.2891ZM842.434 33.9844V28.2422C842.434 26.6172 842.317 25.2344 842.082 24.0938C841.848 22.9375 841.496 21.9922 841.027 21.2578C840.559 20.5234 839.988 19.9844 839.317 19.6406C838.645 19.2969 837.863 19.125 836.973 19.125C836.082 19.125 835.293 19.2969 834.606 19.6406C833.934 19.9844 833.363 20.5234 832.895 21.2578C832.442 21.9922 832.098 22.9375 831.863 24.0938C831.645 25.2344 831.535 26.6172 831.535 28.2422V33.9844C831.535 35.5469 831.652 36.8828 831.887 37.9922C832.121 39.1016 832.473 40.0078 832.942 40.7109C833.41 41.4141 833.981 41.9375 834.652 42.2812C835.34 42.6094 836.129 42.7734 837.02 42.7734C837.895 42.7734 838.668 42.6094 839.34 42.2812C840.027 41.9375 840.598 41.4141 841.051 40.7109C841.504 40.0078 841.848 39.1016 842.082 37.9922C842.317 36.8828 842.434 35.5469 842.434 33.9844ZM853.79 13.875H864.735C867.016 13.875 868.962 14.2656 870.571 15.0469C872.18 15.8281 873.415 16.9844 874.274 18.5156C875.133 20.0469 875.563 21.9375 875.563 24.1875C875.563 26.0312 875.313 27.6094 874.813 28.9219C874.313 30.2188 873.602 31.3047 872.68 32.1797C871.758 33.0391 870.657 33.7266 869.376 34.2422L867.29 35.4844H858.407L858.383 29.7891H864.547C865.485 29.7891 866.258 29.5859 866.868 29.1797C867.493 28.7578 867.954 28.1719 868.251 27.4219C868.563 26.6562 868.719 25.7656 868.719 24.75C868.719 23.6719 868.579 22.75 868.297 21.9844C868.032 21.2031 867.602 20.6094 867.008 20.2031C866.43 19.7812 865.672 19.5703 864.735 19.5703H860.657V48H853.79V13.875ZM869.282 48L863.024 32.7891L870.219 32.7656L876.618 47.6719V48H869.282ZM892.239 13.875V48H885.419V13.875H892.239ZM900.724 13.875V19.5703H877.099V13.875H900.724ZM919.556 13.875H926.4V37.3125C926.4 39.9375 925.916 42.0781 924.947 43.7344C923.994 45.375 922.673 46.5781 920.986 47.3438C919.298 48.0938 917.369 48.4688 915.197 48.4688C913.009 48.4688 911.064 48.0938 909.361 47.3438C907.658 46.5781 906.33 45.375 905.377 43.7344C904.439 42.0781 903.97 39.9375 903.97 37.3125V13.875H910.814V37.3125C910.814 38.7969 910.978 39.9375 911.306 40.7344C911.65 41.5312 912.142 42.0781 912.783 42.375C913.439 42.6562 914.244 42.7969 915.197 42.7969C916.166 42.7969 916.962 42.6562 917.587 42.375C918.228 42.0781 918.712 41.5312 919.041 40.7344C919.384 39.9375 919.556 38.7969 919.556 37.3125V13.875ZM955.029 13.875V48H948.397L937.686 26.6484V48H931.17V13.875H937.709L948.514 35.4609V13.875H955.029ZM967.206 13.875V48H960.385V13.875H967.206ZM985.476 13.875V48H978.655V13.875H985.476ZM993.96 13.875V19.5703H970.335V13.875H993.96ZM1002.9 13.875L1008.1 29.25L1013.26 13.875H1020.74L1011.55 35.6016V48H1004.64V35.6016L995.449 13.875H1002.9ZM1046.19 13.875V48H1039.37V13.875H1046.19ZM1054.68 13.875V19.5703H1031.05V13.875H1054.68ZM1081.5 28.2891V33.9844C1081.5 36.3906 1081.2 38.5 1080.61 40.3125C1080.03 42.1094 1079.2 43.6172 1078.13 44.8359C1077.06 46.0391 1075.77 46.9453 1074.26 47.5547C1072.76 48.1641 1071.09 48.4688 1069.27 48.4688C1067.44 48.4688 1065.77 48.1641 1064.25 47.5547C1062.75 46.9453 1061.45 46.0391 1060.36 44.8359C1059.28 43.6172 1058.45 42.1094 1057.85 40.3125C1057.26 38.5 1056.96 36.3906 1056.96 33.9844V28.2891C1056.96 25.8203 1057.25 23.6641 1057.83 21.8203C1058.41 19.9609 1059.24 18.4141 1060.34 17.1797C1061.43 15.9297 1062.73 14.9922 1064.23 14.3672C1065.73 13.7266 1067.39 13.4062 1069.22 13.4062C1071.05 13.4062 1072.71 13.7266 1074.21 14.3672C1075.71 14.9922 1077.01 15.9297 1078.1 17.1797C1079.2 18.4141 1080.03 19.9609 1080.61 21.8203C1081.2 23.6641 1081.5 25.8203 1081.5 28.2891ZM1074.68 33.9844V28.2422C1074.68 26.6172 1074.56 25.2344 1074.33 24.0938C1074.09 22.9375 1073.74 21.9922 1073.27 21.2578C1072.81 20.5234 1072.24 19.9844 1071.56 19.6406C1070.89 19.2969 1070.11 19.125 1069.22 19.125C1068.33 19.125 1067.54 19.2969 1066.85 19.6406C1066.18 19.9844 1065.61 20.5234 1065.14 21.2578C1064.69 21.9922 1064.34 22.9375 1064.11 24.0938C1063.89 25.2344 1063.78 26.6172 1063.78 28.2422V33.9844C1063.78 35.5469 1063.9 36.8828 1064.13 37.9922C1064.37 39.1016 1064.72 40.0078 1065.19 40.7109C1065.66 41.4141 1066.23 41.9375 1066.9 42.2812C1067.59 42.6094 1068.38 42.7734 1069.27 42.7734C1070.14 42.7734 1070.92 42.6094 1071.59 42.2812C1072.27 41.9375 1072.84 41.4141 1073.3 40.7109C1073.75 40.0078 1074.09 39.1016 1074.33 37.9922C1074.56 36.8828 1074.68 35.5469 1074.68 33.9844ZM1112.86 36.6328H1119.68C1119.59 39.1953 1119.07 41.3594 1118.13 43.125C1117.2 44.875 1115.86 46.2031 1114.13 47.1094C1112.41 48.0156 1110.33 48.4688 1107.89 48.4688C1106 48.4688 1104.32 48.1562 1102.85 47.5312C1101.38 46.8906 1100.13 45.9531 1099.1 44.7188C1098.07 43.4844 1097.29 41.9609 1096.76 40.1484C1096.24 38.3203 1095.99 36.2188 1095.99 33.8438V28.0547C1095.99 25.6797 1096.26 23.5781 1096.81 21.75C1097.37 19.9219 1098.17 18.3906 1099.2 17.1562C1100.24 15.9063 1101.5 14.9688 1102.97 14.3438C1104.46 13.7031 1106.13 13.3828 1107.99 13.3828C1110.47 13.3828 1112.55 13.8516 1114.22 14.7891C1115.89 15.7266 1117.18 17.0938 1118.09 18.8906C1119.01 20.6719 1119.56 22.8516 1119.75 25.4297H1112.91C1112.86 23.8047 1112.67 22.5312 1112.35 21.6094C1112.03 20.6719 1111.53 20.0156 1110.85 19.6406C1110.16 19.25 1109.21 19.0547 1107.99 19.0547C1107.08 19.0547 1106.3 19.2188 1105.64 19.5469C1104.99 19.8594 1104.45 20.3672 1104.03 21.0703C1103.6 21.7734 1103.29 22.6953 1103.09 23.8359C1102.9 24.9766 1102.81 26.3672 1102.81 28.0078V33.8438C1102.81 35.4531 1102.89 36.8281 1103.06 37.9688C1103.24 39.0938 1103.51 40.0156 1103.88 40.7344C1104.26 41.4531 1104.77 41.9766 1105.41 42.3047C1106.06 42.6328 1106.89 42.7969 1107.89 42.7969C1109.05 42.7969 1109.98 42.625 1110.68 42.2812C1111.4 41.9375 1111.93 41.3203 1112.28 40.4297C1112.62 39.5391 1112.81 38.2734 1112.86 36.6328ZM1147.47 28.2891V33.9844C1147.47 36.3906 1147.17 38.5 1146.58 40.3125C1146 42.1094 1145.17 43.6172 1144.09 44.8359C1143.03 46.0391 1141.74 46.9453 1140.23 47.5547C1138.73 48.1641 1137.06 48.4688 1135.23 48.4688C1133.4 48.4688 1131.73 48.1641 1130.22 47.5547C1128.72 46.9453 1127.42 46.0391 1126.33 44.8359C1125.25 43.6172 1124.41 42.1094 1123.82 40.3125C1123.23 38.5 1122.93 36.3906 1122.93 33.9844V28.2891C1122.93 25.8203 1123.22 23.6641 1123.8 21.8203C1124.37 19.9609 1125.21 18.4141 1126.3 17.1797C1127.4 15.9297 1128.69 14.9922 1130.19 14.3672C1131.69 13.7266 1133.36 13.4062 1135.19 13.4062C1137.01 13.4062 1138.68 13.7266 1140.18 14.3672C1141.68 14.9922 1142.98 15.9297 1144.07 17.1797C1145.16 18.4141 1146 19.9609 1146.58 21.8203C1147.17 23.6641 1147.47 25.8203 1147.47 28.2891ZM1140.65 33.9844V28.2422C1140.65 26.6172 1140.53 25.2344 1140.3 24.0938C1140.06 22.9375 1139.71 21.9922 1139.24 21.2578C1138.77 20.5234 1138.2 19.9844 1137.53 19.6406C1136.86 19.2969 1136.08 19.125 1135.19 19.125C1134.3 19.125 1133.51 19.2969 1132.82 19.6406C1132.15 19.9844 1131.58 20.5234 1131.11 21.2578C1130.65 21.9922 1130.31 22.9375 1130.08 24.0938C1129.86 25.2344 1129.75 26.6172 1129.75 28.2422V33.9844C1129.75 35.5469 1129.87 36.8828 1130.1 37.9922C1130.33 39.1016 1130.69 40.0078 1131.15 40.7109C1131.62 41.4141 1132.19 41.9375 1132.87 42.2812C1133.55 42.6094 1134.34 42.7734 1135.23 42.7734C1136.11 42.7734 1136.88 42.6094 1137.55 42.2812C1138.24 41.9375 1138.81 41.4141 1139.26 40.7109C1139.72 40.0078 1140.06 39.1016 1140.3 37.9922C1140.53 36.8828 1140.65 35.5469 1140.65 33.9844ZM1175.84 13.875V48H1169.21L1158.49 26.6484V48H1151.98V13.875H1158.52L1169.32 35.4609V13.875H1175.84ZM1204.75 13.875V48H1198.12L1187.41 26.6484V48H1180.89V13.875H1187.43L1198.23 35.4609V13.875H1204.75ZM1229.37 42.3281V48H1214.53V42.3281H1229.37ZM1216.67 13.875V48H1209.8V13.875H1216.67ZM1227.38 27.7031V33.2109H1214.53V27.7031H1227.38ZM1229.32 13.875V19.5703H1214.53V13.875H1229.32ZM1249.16 36.6328H1255.98C1255.89 39.1953 1255.38 41.3594 1254.44 43.125C1253.5 44.875 1252.16 46.2031 1250.43 47.1094C1248.71 48.0156 1246.63 48.4688 1244.2 48.4688C1242.3 48.4688 1240.63 48.1562 1239.16 47.5312C1237.69 46.8906 1236.44 45.9531 1235.41 44.7188C1234.38 43.4844 1233.59 41.9609 1233.06 40.1484C1232.55 38.3203 1232.29 36.2188 1232.29 33.8438V28.0547C1232.29 25.6797 1232.56 23.5781 1233.11 21.75C1233.67 19.9219 1234.47 18.3906 1235.5 17.1562C1236.55 15.9063 1237.8 14.9688 1239.27 14.3438C1240.76 13.7031 1242.43 13.3828 1244.29 13.3828C1246.77 13.3828 1248.85 13.8516 1250.52 14.7891C1252.2 15.7266 1253.48 17.0938 1254.39 18.8906C1255.31 20.6719 1255.87 22.8516 1256.05 25.4297H1249.21C1249.16 23.8047 1248.98 22.5312 1248.65 21.6094C1248.34 20.6719 1247.84 20.0156 1247.15 19.6406C1246.46 19.25 1245.51 19.0547 1244.29 19.0547C1243.38 19.0547 1242.6 19.2188 1241.95 19.5469C1241.29 19.8594 1240.75 20.3672 1240.33 21.0703C1239.91 21.7734 1239.59 22.6953 1239.39 23.8359C1239.2 24.9766 1239.11 26.3672 1239.11 28.0078V33.8438C1239.11 35.4531 1239.2 36.8281 1239.37 37.9688C1239.54 39.0938 1239.81 40.0156 1240.19 40.7344C1240.56 41.4531 1241.07 41.9766 1241.71 42.3047C1242.37 42.6328 1243.2 42.7969 1244.2 42.7969C1245.35 42.7969 1246.28 42.625 1246.98 42.2812C1247.7 41.9375 1248.23 41.3203 1248.58 40.4297C1248.92 39.5391 1249.12 38.2734 1249.16 36.6328ZM1272.68 13.875V48H1265.86V13.875H1272.68ZM1281.17 13.875V19.5703H1257.54V13.875H1281.17ZM1300.81 42.8906L1306.27 13.875H1309.88L1310.96 18.375L1305.1 48H1301.19L1300.81 42.8906ZM1298.94 13.875L1303.34 42.9609L1302.59 48H1298.28L1292.16 13.875H1298.94ZM1314.92 42.8438L1319.3 13.875H1326.05L1319.98 48H1315.65L1314.92 42.8438ZM1311.97 13.875L1317.47 43.0547L1317.03 48H1313.11L1307.28 18.3281L1308.38 13.875H1311.97ZM1336.49 13.875V48H1329.67V13.875H1336.49ZM1354.76 13.875V48H1347.94V13.875H1354.76ZM1363.25 13.875V19.5703H1339.62V13.875H1363.25ZM1385.67 27.7031V33.375H1371.68V27.7031H1385.67ZM1373.62 13.875V48H1366.75V13.875H1373.62ZM1390.64 13.875V48H1383.84V13.875H1390.64ZM661.37 112H655.346L655.393 106.328H661.37C663.026 106.328 664.315 106.031 665.237 105.438C666.159 104.844 666.807 103.906 667.182 102.625C667.573 101.344 667.768 99.6641 667.768 97.5859V92.2656C667.768 90.6875 667.667 89.3516 667.463 88.2578C667.26 87.1484 666.917 86.2578 666.432 85.5859C665.948 84.8984 665.299 84.3906 664.487 84.0625C663.674 83.7344 662.667 83.5703 661.463 83.5703H655.229V77.875H661.463C663.432 77.875 665.221 78.1953 666.831 78.8359C668.44 79.4766 669.823 80.4141 670.979 81.6484C672.135 82.8672 673.026 84.375 673.651 86.1719C674.276 87.9688 674.588 90.0156 674.588 92.3125V97.5859C674.588 99.8984 674.276 101.945 673.651 103.727C673.026 105.508 672.135 107.016 670.979 108.25C669.838 109.469 668.456 110.398 666.831 111.039C665.206 111.68 663.385 112 661.37 112ZM659.331 77.875V112H652.463V77.875H659.331ZM698.694 106.328V112H683.858V106.328H698.694ZM685.991 77.875V112H679.124V77.875H685.991ZM696.702 91.7031V97.2109H683.858V91.7031H696.702ZM698.648 77.875V83.5703H683.858V77.875H698.648ZM716.66 103.023C716.66 102.414 716.605 101.859 716.496 101.359C716.386 100.859 716.152 100.398 715.792 99.9766C715.449 99.5547 714.941 99.1328 714.269 98.7109C713.613 98.2891 712.753 97.8516 711.691 97.3984C710.425 96.8672 709.199 96.3047 708.011 95.7109C706.824 95.1016 705.753 94.3984 704.8 93.6016C703.847 92.8047 703.089 91.8672 702.527 90.7891C701.98 89.6953 701.707 88.4141 701.707 86.9453C701.707 85.5078 701.964 84.2031 702.48 83.0312C703.011 81.8594 703.761 80.8594 704.73 80.0312C705.699 79.1875 706.832 78.5391 708.128 78.0859C709.441 77.6328 710.902 77.4062 712.511 77.4062C714.699 77.4062 716.589 77.8594 718.183 78.7656C719.792 79.6719 721.035 80.9141 721.91 82.4922C722.8 84.0703 723.246 85.8828 723.246 87.9297H716.402C716.402 86.9609 716.261 86.1094 715.98 85.375C715.714 84.625 715.285 84.0391 714.691 83.6172C714.097 83.1953 713.332 82.9844 712.394 82.9844C711.519 82.9844 710.792 83.1641 710.214 83.5234C709.652 83.8672 709.23 84.3438 708.949 84.9531C708.683 85.5469 708.55 86.2188 708.55 86.9688C708.55 87.5312 708.683 88.0391 708.949 88.4922C709.23 88.9297 709.613 89.3281 710.097 89.6875C710.582 90.0312 711.152 90.3672 711.808 90.6953C712.48 91.0234 713.214 91.3438 714.011 91.6562C715.558 92.2656 716.925 92.9375 718.113 93.6719C719.3 94.3906 720.292 95.2031 721.089 96.1094C721.886 97 722.488 98.0078 722.894 99.1328C723.3 100.258 723.503 101.539 723.503 102.977C723.503 104.398 723.253 105.695 722.753 106.867C722.269 108.023 721.558 109.023 720.621 109.867C719.683 110.695 718.55 111.336 717.222 111.789C715.91 112.242 714.441 112.469 712.816 112.469C711.238 112.469 709.746 112.25 708.339 111.812C706.933 111.359 705.691 110.68 704.613 109.773C703.55 108.852 702.714 107.688 702.105 106.281C701.496 104.859 701.191 103.18 701.191 101.242H708.058C708.058 102.273 708.16 103.156 708.363 103.891C708.566 104.609 708.878 105.188 709.3 105.625C709.722 106.047 710.238 106.367 710.847 106.586C711.472 106.789 712.183 106.891 712.98 106.891C713.886 106.891 714.605 106.719 715.136 106.375C715.683 106.031 716.074 105.57 716.308 104.992C716.542 104.414 716.66 103.758 716.66 103.023ZM741.258 77.875V112H734.438V77.875H741.258ZM749.742 77.875V83.5703H726.117V77.875H749.742ZM760.372 77.875V112H753.551V77.875H760.372ZM789.61 77.875V112H782.977L772.267 90.6484V112H765.751V77.875H772.29L783.095 99.4609V77.875H789.61ZM799.068 77.875L804.271 93.25L809.427 77.875H816.904L807.716 99.6016V112H800.802V99.6016L791.615 77.875H799.068Z" fill="#161722"/>
</svg>
